<svg xmlns="http://www.w3.org/2000/svg" version="1.1" xmlns:xlink="http://www.w3.org/1999/xlink" xmlns:svgjs="http://svgjs.com/svgjs" width="1440" height="560" preserveAspectRatio="none" viewBox="0 0 1440 560"><g mask="url(&quot;#SvgjsMask1029&quot;)" fill="none"><rect width="1440" height="560" x="0" y="0" fill="rgba(37, 0, 61, 1)"></rect><path d="M1243.825,294.925C1300.808,294.013,1342.507,247.175,1369.903,197.202C1396.03,149.544,1408.208,92.259,1380.59,45.449C1353.334,-0.749,1297.358,-19.866,1243.825,-16.493C1195.894,-13.473,1159.034,20.019,1133.972,60.987C1107.441,104.356,1088.948,155.332,1110.558,201.352C1135.286,254.011,1185.656,295.856,1243.825,294.925" fill="rgba(255, 209, 0, 1)" class="triangle-float1"></path><path d="M124.759,586.661C144.753,586.693,156.508,566.002,165.233,548.012C172.639,532.742,175.11,515.171,166.532,500.527C158.039,486.028,141.552,479.489,124.759,478.915C106.706,478.298,86.839,481.892,77.734,497.494C68.579,513.182,76.038,531.815,84.511,547.882C93.826,565.544,104.791,586.629,124.759,586.661" fill="rgba(255, 209, 0, 1)" class="triangle-float1"></path><path d="M1233.581,161.085C1262.311,161.98,1288.616,145.472,1303.149,120.673C1317.851,95.586,1319.435,64.515,1304.948,39.303C1290.412,14.004,1262.758,-0.217,1233.581,-0.403C1204.062,-0.591,1174.525,12.343,1160.622,38.384C1147.35,63.244,1156.734,92.337,1171.137,116.559C1185.141,140.11,1206.194,160.232,1233.581,161.085" fill="rgba(255, 209, 0, 1)" class="triangle-float2"></path><path d="M68.775,111.852C99.632,113.063,127.197,94.175,143.079,67.691C159.464,40.367,165.598,5.652,148.631,-21.314C132.461,-47.014,99.092,-52.098,68.775,-50.405C41.817,-48.9,16.475,-36.58,3.004,-13.181C-10.439,10.17,-8.616,38.385,3.928,62.231C17.509,88.049,39.625,110.708,68.775,111.852" fill="rgba(255, 209, 0, 1)" class="triangle-float1"></path><path d="M1210.509,652.987C1250.794,653.8,1296.159,656.114,1319.259,623.1C1344.985,586.334,1343.521,535.278,1319.306,497.499C1296.676,462.192,1252.363,450.789,1210.509,453.432C1173.428,455.774,1142.584,478.209,1123.166,509.886C1102.651,543.354,1088.653,585.352,1109.104,618.859C1129.018,651.487,1172.292,652.216,1210.509,652.987" fill="rgba(255, 209, 0, 1)" class="triangle-float3"></path><path d="M867.294,299.737C887.486,298.929,906.539,289.898,916.889,272.542C927.494,254.757,928.699,232.363,918.065,214.595C907.688,197.256,887.494,190.218,867.294,189.67C845.875,189.088,823.24,193.77,811.513,211.703C798.781,231.173,797.863,257.155,810.314,276.805C822.059,295.341,845.368,300.614,867.294,299.737" fill="rgba(255, 209, 0, 1)" class="triangle-float1"></path></g><defs><mask id="SvgjsMask1029"><rect width="1440" height="560" fill="#ffffff"></rect></mask><style>
            @keyframes float1 {
                0%{transform: translate(0, 0)}
                50%{transform: translate(-10px, 0)}
                100%{transform: translate(0, 0)}
            }

            .triangle-float1 {
                animation: float1 5s infinite;
            }

            @keyframes float2 {
                0%{transform: translate(0, 0)}
                50%{transform: translate(-5px, -5px)}
                100%{transform: translate(0, 0)}
            }

            .triangle-float2 {
                animation: float2 4s infinite;
            }

            @keyframes float3 {
                0%{transform: translate(0, 0)}
                50%{transform: translate(0, -10px)}
                100%{transform: translate(0, 0)}
            }

            .triangle-float3 {
                animation: float3 6s infinite;
            }
        </style></defs></svg>