<svg xmlns="http://www.w3.org/2000/svg" version="1.1" xmlns:xlink="http://www.w3.org/1999/xlink" xmlns:svgjs="http://svgjs.com/svgjs" width="1440" height="560" preserveAspectRatio="none" viewBox="0 0 1440 560"><g mask="url(&quot;#SvgjsMask1260&quot;)" fill="none"><rect width="1440" height="560" x="0" y="0" fill="rgba(37, 0, 61, 1)"></rect><g transform="translate(0, 0)" stroke-linecap="round"><path d="M175.5 167.33 L175.5 392.67" stroke-width="24.75" stroke="rgba(255, 201, 0, 1)"></path><path d="M208.5 146.15 L208.5 413.86" stroke-width="24.75" stroke="rgba(255, 201, 0, 1)"></path><path d="M241.5 97.28 L241.5 462.73" stroke-width="24.75" stroke="rgba(255, 201, 0, 1)"></path><path d="M274.5 160.24 L274.5 399.76" stroke-width="24.75" stroke="rgba(255, 201, 0, 1)"></path><path d="M307.5 163.48 L307.5 396.52" stroke-width="24.75" stroke="rgba(255, 201, 0, 1)"></path><path d="M340.5 109.9 L340.5 450.1" stroke-width="24.75" stroke="rgba(255, 201, 0, 1)"></path><path d="M373.5 142.13 L373.5 417.87" stroke-width="24.75" stroke="rgba(255, 201, 0, 1)"></path><path d="M406.5 229.88 L406.5 330.12" stroke-width="24.75" stroke="rgba(255, 201, 0, 1)"></path><path d="M439.5 253.35 L439.5 306.65" stroke-width="24.75" stroke="rgba(255, 201, 0, 1)"></path><path d="M472.5 154.4 L472.5 405.6" stroke-width="24.75" stroke="rgba(255, 201, 0, 1)"></path><path d="M505.5 185.5 L505.5 374.5" stroke-width="24.75" stroke="rgba(255, 201, 0, 1)"></path><path d="M538.5 83.01 L538.5 476.99" stroke-width="24.75" stroke="rgba(255, 201, 0, 1)"></path><path d="M571.5 187.54 L571.5 372.46" stroke-width="24.75" stroke="rgba(255, 201, 0, 1)"></path><path d="M604.5 131.03 L604.5 428.98" stroke-width="24.75" stroke="rgba(255, 201, 0, 1)"></path><path d="M637.5 179.83 L637.5 380.17" stroke-width="24.75" stroke="rgba(255, 201, 0, 1)"></path><path d="M670.5 241.06 L670.5 318.94" stroke-width="24.75" stroke="rgba(255, 201, 0, 1)"></path><path d="M703.5 86.52 L703.5 473.48" stroke-width="24.75" stroke="rgba(255, 201, 0, 1)"></path><path d="M736.5 80.62 L736.5 479.38" stroke-width="24.75" stroke="rgba(255, 201, 0, 1)"></path><path d="M769.5 180.11 L769.5 379.89" stroke-width="24.75" stroke="rgba(255, 201, 0, 1)"></path><path d="M802.5 122.88 L802.5 437.13" stroke-width="24.75" stroke="rgba(255, 201, 0, 1)"></path><path d="M835.5 135.09 L835.5 424.91" stroke-width="24.75" stroke="rgba(255, 201, 0, 1)"></path><path d="M868.5 218.53 L868.5 341.48" stroke-width="24.75" stroke="rgba(255, 201, 0, 1)"></path><path d="M901.5 135.91 L901.5 424.09" stroke-width="24.75" stroke="rgba(255, 201, 0, 1)"></path><path d="M934.5 196.33 L934.5 363.67" stroke-width="24.75" stroke="rgba(255, 201, 0, 1)"></path><path d="M967.5 230.13 L967.5 329.88" stroke-width="24.75" stroke="rgba(255, 201, 0, 1)"></path><path d="M1000.5 73.19 L1000.5 486.81" stroke-width="24.75" stroke="rgba(255, 201, 0, 1)"></path><path d="M1033.5 204.34 L1033.5 355.66" stroke-width="24.75" stroke="rgba(255, 201, 0, 1)"></path><path d="M1066.5 132.26 L1066.5 427.74" stroke-width="24.75" stroke="rgba(255, 201, 0, 1)"></path><path d="M1099.5 202.64 L1099.5 357.36" stroke-width="24.75" stroke="rgba(255, 201, 0, 1)"></path><path d="M1132.5 257.37 L1132.5 302.63" stroke-width="24.75" stroke="rgba(255, 201, 0, 1)"></path><path d="M1165.5 163.43 L1165.5 396.57" stroke-width="24.75" stroke="rgba(255, 201, 0, 1)"></path><path d="M1198.5 107.36 L1198.5 452.64" stroke-width="24.75" stroke="rgba(255, 201, 0, 1)"></path><path d="M1231.5 99.47 L1231.5 460.53" stroke-width="24.75" stroke="rgba(255, 201, 0, 1)"></path><path d="M1264.5 201.81 L1264.5 358.19" stroke-width="24.75" stroke="rgba(255, 201, 0, 1)"></path></g></g><defs><mask id="SvgjsMask1260"><rect width="1440" height="560" fill="#ffffff"></rect></mask></defs></svg>