<svg xmlns="http://www.w3.org/2000/svg" version="1.1" xmlns:xlink="http://www.w3.org/1999/xlink" xmlns:svgjs="http://svgjs.com/svgjs" width="1440" height="560" preserveAspectRatio="none" viewBox="0 0 1440 560"><g mask="url(&quot;#SvgjsMask1039&quot;)" fill="none"><rect width="1440" height="560" x="0" y="0" fill="rgba(255, 201, 0, 1)"></rect><path d="M -725.822754146137,330 C -437.82,297.2 138.18,154.4 714.177245853863,166 C 1290.18,177.6 2009.01,409.4 2154.177245853863,388 C 2299.34,366.6 1582.84,124.8 1440,59" stroke="rgba(49, 0, 82, 1)" stroke-width="2"></path><path d="M -1130.3790198541594,195 C -842.38,236.2 -266.38,421.2 309.6209801458406,401 C 885.62,380.8 1523.55,117.4 1749.6209801458406,94 C 1975.7,70.6 1501.92,246 1440,284" stroke="rgba(49, 0, 82, 1)" stroke-width="2"></path><path d="M -2742.5981087896075,206 C -2454.6,223.8 -1878.6,295.2 -1302.5981087896075,295 C -726.6,294.8 -411.12,170.6 137.40189121039248,205 C 685.92,239.4 1179.48,414.6 1440,467" stroke="rgba(49, 0, 82, 1)" stroke-width="2"></path><path d="M -2508.8003820862195,230 C -2220.8,270.6 -1644.8,425.6 -1068.8003820862198,433 C -492.8,440.4 -130.56,297.4 371.19961791378023,267 C 872.96,236.6 1226.24,278.2 1440,281" stroke="rgba(49, 0, 82, 1)" stroke-width="2"></path><path d="M -20.36349478706552,490 C 267.64,434.6 843.64,221 1419.6365052129345,213 C 1995.64,205 2855.56,452 2859.6365052129345,450 C 2863.71,448 1723.93,252.4 1440,203" stroke="rgba(49, 0, 82, 1)" stroke-width="2"></path><path d="M -2133.221250078194,186 C -1845.22,226.8 -1269.22,399.8 -693.2212500781937,390 C -117.22,380.2 320.13,151.4 746.7787499218063,137 C 1173.42,122.6 1301.36,281.8 1440,318" stroke="rgba(49, 0, 82, 1)" stroke-width="2"></path></g><defs><mask id="SvgjsMask1039"><rect width="1440" height="560" fill="#ffffff"></rect></mask></defs></svg>